<mxfile host="app.diagrams.net" modified="2023-10-26T06:42:32.689Z" agent="Mozilla/5.0 (Windows NT 10.0; Win64; x64) AppleWebKit/537.36 (KHTML, like Gecko) Chrome/118.0.0.0 Safari/537.36" etag="BYePcxtwcZ476KXP6L3a" version="22.0.7" type="github">
  <diagram name="第 1 页" id="yayIas5Ccat3wBkKV7QJ">
    <mxGraphModel dx="1034" dy="1601" grid="1" gridSize="10" guides="1" tooltips="1" connect="1" arrows="1" fold="1" page="1" pageScale="1" pageWidth="827" pageHeight="1169" math="0" shadow="0">
      <root>
        <mxCell id="0" />
        <mxCell id="1" parent="0" />
        <mxCell id="90YdUAzLb2wsjgZhNj6_-1" value="智能电话" style="rounded=1;whiteSpace=wrap;html=1;" parent="1" vertex="1">
          <mxGeometry x="100" y="180" width="120" height="60" as="geometry" />
        </mxCell>
        <mxCell id="90YdUAzLb2wsjgZhNj6_-2" value="" style="strokeWidth=2;html=1;shape=mxgraph.flowchart.annotation_2;align=left;labelPosition=right;pointerEvents=1;" parent="1" vertex="1">
          <mxGeometry x="220" y="-60" width="30" height="540" as="geometry" />
        </mxCell>
        <mxCell id="svN1KODfeErU4mR28TL3-1" value="基础数据" style="rounded=1;whiteSpace=wrap;html=1;" vertex="1" parent="1">
          <mxGeometry x="260" y="-20" width="120" height="60" as="geometry" />
        </mxCell>
        <mxCell id="svN1KODfeErU4mR28TL3-2" value="" style="strokeWidth=2;html=1;shape=mxgraph.flowchart.annotation_2;align=left;labelPosition=right;pointerEvents=1;points=[[0,0.5,0,0,0],[0.5,0,0,0,0],[0.5,1,0,0,0],[1,0,0,0,0],[1,0.5,0,0,0],[1,1,0,0,0]];" vertex="1" parent="1">
          <mxGeometry x="388.5" y="-70" width="50" height="160" as="geometry" />
        </mxCell>
        <mxCell id="svN1KODfeErU4mR28TL3-9" value="声网信息" style="rounded=0;whiteSpace=wrap;html=1;" vertex="1" parent="1">
          <mxGeometry x="438.5" y="-60" width="130" height="30" as="geometry" />
        </mxCell>
        <mxCell id="svN1KODfeErU4mR28TL3-10" value="电话权限" style="rounded=0;whiteSpace=wrap;html=1;" vertex="1" parent="1">
          <mxGeometry x="610" y="-60" width="130" height="30" as="geometry" />
        </mxCell>
        <mxCell id="svN1KODfeErU4mR28TL3-11" value="响铃次数" style="rounded=0;whiteSpace=wrap;html=1;" vertex="1" parent="1">
          <mxGeometry x="438.5" y="-5" width="130" height="30" as="geometry" />
        </mxCell>
        <mxCell id="svN1KODfeErU4mR28TL3-12" value="通话心跳检测时间" style="rounded=0;whiteSpace=wrap;html=1;" vertex="1" parent="1">
          <mxGeometry x="610" width="130" height="30" as="geometry" />
        </mxCell>
        <mxCell id="svN1KODfeErU4mR28TL3-13" value="采码方式和场景" style="rounded=0;whiteSpace=wrap;html=1;" vertex="1" parent="1">
          <mxGeometry x="438.5" y="50" width="130" height="30" as="geometry" />
        </mxCell>
        <mxCell id="svN1KODfeErU4mR28TL3-14" value="绑定设备" style="rounded=0;whiteSpace=wrap;html=1;" vertex="1" parent="1">
          <mxGeometry x="610" y="50" width="130" height="30" as="geometry" />
        </mxCell>
        <mxCell id="svN1KODfeErU4mR28TL3-15" value="拨打电话" style="rounded=1;whiteSpace=wrap;html=1;" vertex="1" parent="1">
          <mxGeometry x="260" y="170" width="120" height="60" as="geometry" />
        </mxCell>
        <mxCell id="svN1KODfeErU4mR28TL3-19" style="edgeStyle=orthogonalEdgeStyle;rounded=0;orthogonalLoop=1;jettySize=auto;html=1;exitX=1;exitY=1;exitDx=0;exitDy=0;exitPerimeter=0;" edge="1" parent="1" source="svN1KODfeErU4mR28TL3-16">
          <mxGeometry relative="1" as="geometry">
            <mxPoint x="460" y="245" as="targetPoint" />
          </mxGeometry>
        </mxCell>
        <mxCell id="svN1KODfeErU4mR28TL3-20" style="edgeStyle=orthogonalEdgeStyle;rounded=0;orthogonalLoop=1;jettySize=auto;html=1;exitX=1;exitY=0;exitDx=0;exitDy=0;exitPerimeter=0;" edge="1" parent="1" source="svN1KODfeErU4mR28TL3-16">
          <mxGeometry relative="1" as="geometry">
            <mxPoint x="460" y="155" as="targetPoint" />
          </mxGeometry>
        </mxCell>
        <mxCell id="svN1KODfeErU4mR28TL3-16" value="" style="strokeWidth=2;html=1;shape=mxgraph.flowchart.annotation_2;align=left;labelPosition=right;pointerEvents=1;points=[[0,0.5,0,0,0],[0.5,0,0,0,0],[0.5,1,0,0,0],[1,0,0,0,0],[1,0.5,0,0,0],[1,1,0,0,0]];" vertex="1" parent="1">
          <mxGeometry x="380" y="155" width="50" height="90" as="geometry" />
        </mxCell>
        <mxCell id="svN1KODfeErU4mR28TL3-21" value="按键或点击触发" style="rounded=1;whiteSpace=wrap;html=1;" vertex="1" parent="1">
          <mxGeometry x="460" y="130" width="120" height="60" as="geometry" />
        </mxCell>
        <mxCell id="svN1KODfeErU4mR28TL3-22" value="语音呼叫触发" style="rounded=1;whiteSpace=wrap;html=1;" vertex="1" parent="1">
          <mxGeometry x="460" y="220" width="120" height="60" as="geometry" />
        </mxCell>
      </root>
    </mxGraphModel>
  </diagram>
</mxfile>
